<svg width="32" height="18" viewBox="0 0 32 18" fill="none" xmlns="http://www.w3.org/2000/svg">
<g id="Group">
<path id="Vector" d="M29.118 15.9527V13.4566H30.0391C31.1206 13.4566 32 12.5769 32 11.4957V6.50427C32 5.42311 31.1206 4.54303 30.0391 4.54303H29.118V2.0473C29.118 0.966483 28.238 0.0863953 27.1565 0.0863953H1.9609C0.879411 0.0863953 0 0.966483 0 2.0473V15.9527C0 17.0335 0.879411 17.9136 1.9609 17.9136H27.1565C28.238 17.9136 29.118 17.0335 29.118 15.9527ZM1.9609 16.1307C1.86274 16.1307 1.78252 16.0509 1.78252 15.9527V2.0473C1.78252 1.94947 1.86274 1.86925 1.9609 1.86925H27.1565C27.255 1.86925 27.3349 1.94947 27.3349 2.0473V15.9527C27.3349 16.0509 27.255 16.1307 27.1565 16.1307H1.9609ZM2.80782 3.05771V15.0019H26.1616V3.05771H2.80782Z" fill="#33658A"/>
</g>
</svg>
