<?xml-stylesheet href="physmodIcon.css" type="text/css"?>

<!-- Generator: Adobe Illustrator 15.1.0, SVG Export Plug-In  -->
<!DOCTYPE svg PUBLIC "-//W3C//DTD SVG 1.1//EN" "http://www.w3.org/Graphics/SVG/1.1/DTD/svg11.dtd" [
	<!ENTITY ns_flows "http://ns.adobe.com/Flows/1.0/">
]>
<svg version="1.1"
	 xmlns="http://www.w3.org/2000/svg" xmlns:xlink="http://www.w3.org/1999/xlink" xmlns:a="http://ns.adobe.com/AdobeSVGViewerExtensions/3.0/"
	 x="0px" y="0px" width="42px" height="42px" viewBox="0.5 0.5 40 40" enable-background="new -0.5 -0.5 42 42"
	 xml:space="preserve">
<defs>
</defs>
<g>
	<path fill="#E04927" d="M23.722,35.941c1.408-0.995,2.715-2.126,3.804-3.42c1.079-1.296,1.912-2.797,2.236-4.385
		c0.155-0.805,0.241-1.577,0.087-2.37c-0.109-0.815-0.299-1.637-0.563-2.397c-0.504-1.549-1.377-2.933-2.428-4.229l1.432-0.332
		c-0.098,0.505-0.32,0.907-0.56,1.251c-0.242,0.345-0.518,0.633-0.806,0.893c-0.59,0.518-1.181,0.938-1.963,1.279
		c-0.438,0.19-0.946-0.01-1.137-0.447c-0.076-0.175-0.09-0.362-0.051-0.535l0.011-0.047c0.153-0.68,0.252-1.333,0.265-2.008
		l0.004-0.5l-0.02-0.531c-0.019-0.334-0.049-0.685-0.095-1.024c-0.176-1.368-0.527-2.713-1.07-3.979
		c-1.083-2.542-2.907-4.722-5.111-6.437l1.349-1.417c0.33,0.398,0.561,0.842,0.705,1.314c0.069,0.229,0.127,0.497,0.136,0.789
		c0.007,0.246-0.006,0.462-0.025,0.676c-0.085,0.839-0.285,1.614-0.52,2.346c-0.466,1.501-1.198,2.879-1.946,4.167
		c-0.75,1.278-1.524,2.556-2.367,3.79c-0.841,1.226-1.737,2.403-2.506,3.597c-0.737,1.167-1.287,2.454-1.448,3.798
		c-0.16,1.368,0.085,2.735,0.619,4.038c1.089,2.619,3.385,4.645,5.904,6.121c-2.705-1.121-5.238-3.008-6.716-5.735
		c-0.735-1.346-1.097-2.957-1.025-4.522c0.074-1.596,0.632-3.118,1.404-4.463c1.569-2.606,3.188-4.915,4.552-7.513
		c0.697-1.268,1.286-2.535,1.69-3.846c0.21-0.668,0.364-1.329,0.421-1.953c0.013-0.152,0.019-0.303,0.014-0.425
		c-0.001-0.076-0.02-0.17-0.057-0.292c-0.073-0.23-0.193-0.447-0.335-0.613c-0.351-0.415-0.298-1.036,0.117-1.386
		c0.356-0.302,0.865-0.305,1.224-0.037l0.008,0.006c2.464,1.846,4.515,4.345,5.71,7.241c0.594,1.444,1.003,2.969,1.152,4.524
		c0.04,0.391,0.063,0.773,0.073,1.173l0.004,0.571c-0.005,0.216-0.007,0.398-0.021,0.602c-0.038,0.795-0.185,1.599-0.378,2.346
		l-1.177-1.029c0.479-0.188,1.038-0.54,1.479-0.915c0.445-0.373,0.828-0.84,0.909-1.185l0.01-0.041
		c0.101-0.43,0.531-0.697,0.961-0.596c0.192,0.045,0.353,0.157,0.461,0.305c1.049,1.424,1.976,3.049,2.454,4.813
		c0.239,0.887,0.381,1.765,0.442,2.663c0.048,0.409,0.053,0.967-0.012,1.401c-0.054,0.458-0.146,0.911-0.271,1.351
		c-0.518,1.767-1.584,3.27-2.817,4.509C26.696,34.144,25.251,35.143,23.722,35.941z"/>
</g>
<g>
	<path fill="#E04927" d="M23.722,35.941c0.897-0.72,1.373-1.82,1.328-2.908c-0.026-1.118-0.408-2.094-1.164-2.93
		c-0.725-0.868-1.429-1.81-2.047-2.774c-0.318-0.485-0.627-1.053-0.79-1.66c-0.073-0.28-0.154-0.543-0.212-0.886l-0.016-0.156
		c-0.001-0.032,0.002-0.09,0.007-0.134c0.006-0.038-0.004-0.014,0.019-0.102l0.008-0.026c0.013-0.054,0.049-0.151,0.103-0.263
		c0.091-0.186,0.17-0.302,0.262-0.44l0.719,0.654c-0.902,0.792-1.731,1.674-2.286,2.692c-0.274,0.508-0.472,1.049-0.57,1.603
		c-0.102,0.563-0.089,1.117,0.052,1.665l0.006,0.023c0.058,0.228-0.079,0.459-0.307,0.518c-0.091,0.023-0.183,0.015-0.264-0.018
		c-0.35-0.14-0.624-0.308-0.894-0.529c-0.255-0.229-0.536-0.474-0.656-0.948l0.662,0.165c-0.424,0.463-0.824,0.905-1.053,1.432
		c-0.23,0.538-0.343,1.123-0.359,1.748c-0.047,0.595,0.051,1.203,0.308,1.76c0.259,0.556,0.646,1.059,1.082,1.517
		c-0.503-0.381-0.974-0.833-1.308-1.397c-0.341-0.558-0.531-1.22-0.554-1.887c-0.043-0.637,0.044-1.324,0.258-1.967
		c0.229-0.661,0.658-1.205,1.045-1.7c0.127-0.163,0.361-0.191,0.523-0.064c0.064,0.05,0.107,0.117,0.129,0.189l0.012,0.04
		c0.034,0.118,0.215,0.318,0.422,0.461c0.208,0.146,0.457,0.29,0.672,0.362l-0.564,0.524c-0.193-0.653-0.239-1.372-0.14-2.038
		c0.088-0.68,0.333-1.322,0.638-1.914c0.623-1.187,1.53-2.155,2.512-2.981c0.206-0.175,0.516-0.149,0.69,0.058
		c0.146,0.173,0.151,0.418,0.028,0.596c-0.067,0.098-0.145,0.219-0.18,0.289c-0.011,0.015-0.032,0.048-0.055,0.132l-0.008,0.025
		l0.013-0.049c0.004-0.008,0.002-0.03,0.001-0.027l0.006,0.056c0.032,0.22,0.108,0.505,0.177,0.775
		c0.123,0.498,0.34,0.955,0.628,1.43c0.588,0.965,1.187,1.892,1.851,2.828c0.72,0.904,1.169,2.201,1.035,3.37
		C25.396,34.242,24.738,35.393,23.722,35.941z"/>
</g>
</svg>
